<mxfile host="app.diagrams.net" modified="2022-11-10T07:34:09.462Z" agent="5.0 (Windows NT 10.0; Win64; x64) AppleWebKit/537.36 (KHTML, like Gecko) Chrome/107.0.0.0 Safari/537.36" etag="OrMx3OaZm5UajjeVeeKa" version="20.5.1" type="github">
  <diagram id="48ETrjCSjWNvzhYSmwD_" name="网络包接收">
    <mxGraphModel dx="2048" dy="1875" grid="1" gridSize="10" guides="1" tooltips="1" connect="1" arrows="1" fold="1" page="1" pageScale="1" pageWidth="827" pageHeight="1169" math="0" shadow="0">
      <root>
        <mxCell id="0" />
        <mxCell id="1" parent="0" />
        <mxCell id="DZg0SzJ-2mYi3TYw6h-q-1" value="网卡" style="rounded=0;whiteSpace=wrap;html=1;" vertex="1" parent="1">
          <mxGeometry y="560" width="80" height="40" as="geometry" />
        </mxCell>
        <mxCell id="DZg0SzJ-2mYi3TYw6h-q-2" value="" style="rounded=0;whiteSpace=wrap;html=1;" vertex="1" parent="1">
          <mxGeometry x="130" y="60" width="730" height="480" as="geometry" />
        </mxCell>
        <mxCell id="DZg0SzJ-2mYi3TYw6h-q-3" value="CPU" style="rounded=0;whiteSpace=wrap;html=1;" vertex="1" parent="1">
          <mxGeometry y="360" width="80" height="40" as="geometry" />
        </mxCell>
        <mxCell id="DZg0SzJ-2mYi3TYw6h-q-4" value="" style="verticalLabelPosition=bottom;verticalAlign=top;html=1;shape=mxgraph.basic.donut;dx=25;" vertex="1" parent="1">
          <mxGeometry x="550" y="390" width="80" height="80" as="geometry" />
        </mxCell>
        <mxCell id="DZg0SzJ-2mYi3TYw6h-q-5" value="" style="endArrow=none;html=1;rounded=0;exitX=0.593;exitY=0.322;exitDx=0;exitDy=0;exitPerimeter=0;entryX=0.69;entryY=0.058;entryDx=0;entryDy=0;entryPerimeter=0;" edge="1" parent="1" source="DZg0SzJ-2mYi3TYw6h-q-4" target="DZg0SzJ-2mYi3TYw6h-q-4">
          <mxGeometry width="50" height="50" relative="1" as="geometry">
            <mxPoint x="580" y="480" as="sourcePoint" />
            <mxPoint x="600" y="460" as="targetPoint" />
          </mxGeometry>
        </mxCell>
        <mxCell id="DZg0SzJ-2mYi3TYw6h-q-6" value="" style="endArrow=none;html=1;rounded=0;exitX=0.7;exitY=0.539;exitDx=0;exitDy=0;exitPerimeter=0;entryX=1;entryY=0.598;entryDx=0;entryDy=0;entryPerimeter=0;" edge="1" parent="1" source="DZg0SzJ-2mYi3TYw6h-q-4" target="DZg0SzJ-2mYi3TYw6h-q-4">
          <mxGeometry width="50" height="50" relative="1" as="geometry">
            <mxPoint x="602.4000000000001" y="484.6400000000001" as="sourcePoint" />
            <mxPoint x="615.2" y="464.6400000000001" as="targetPoint" />
          </mxGeometry>
        </mxCell>
        <mxCell id="DZg0SzJ-2mYi3TYw6h-q-7" value="" style="endArrow=none;html=1;rounded=0;entryX=0.533;entryY=0.996;entryDx=0;entryDy=0;entryPerimeter=0;exitX=0.52;exitY=0.689;exitDx=0;exitDy=0;exitPerimeter=0;" edge="1" parent="1" source="DZg0SzJ-2mYi3TYw6h-q-4" target="DZg0SzJ-2mYi3TYw6h-q-4">
          <mxGeometry width="50" height="50" relative="1" as="geometry">
            <mxPoint x="590" y="500" as="sourcePoint" />
            <mxPoint x="640" y="507.8399999999999" as="targetPoint" />
          </mxGeometry>
        </mxCell>
        <mxCell id="DZg0SzJ-2mYi3TYw6h-q-8" value="" style="endArrow=none;html=1;rounded=0;entryX=0.047;entryY=0.699;entryDx=0;entryDy=0;entryPerimeter=0;exitX=0.303;exitY=0.532;exitDx=0;exitDy=0;exitPerimeter=0;" edge="1" parent="1" source="DZg0SzJ-2mYi3TYw6h-q-4" target="DZg0SzJ-2mYi3TYw6h-q-4">
          <mxGeometry width="50" height="50" relative="1" as="geometry">
            <mxPoint x="597.36" y="514.88" as="sourcePoint" />
            <mxPoint x="592" y="539.84" as="targetPoint" />
          </mxGeometry>
        </mxCell>
        <mxCell id="DZg0SzJ-2mYi3TYw6h-q-9" value="" style="endArrow=none;html=1;rounded=0;entryX=0.337;entryY=0.402;entryDx=0;entryDy=0;entryPerimeter=0;exitX=0.113;exitY=0.176;exitDx=0;exitDy=0;exitPerimeter=0;" edge="1" parent="1" source="DZg0SzJ-2mYi3TYw6h-q-4" target="DZg0SzJ-2mYi3TYw6h-q-4">
          <mxGeometry width="50" height="50" relative="1" as="geometry">
            <mxPoint x="584.24" y="502.56000000000006" as="sourcePoint" />
            <mxPoint x="563.76" y="515.9200000000001" as="targetPoint" />
          </mxGeometry>
        </mxCell>
        <mxCell id="DZg0SzJ-2mYi3TYw6h-q-10" value="" style="ellipse;shape=cloud;whiteSpace=wrap;html=1;" vertex="1" parent="1">
          <mxGeometry x="-200" y="560" width="60" height="40" as="geometry" />
        </mxCell>
        <mxCell id="DZg0SzJ-2mYi3TYw6h-q-11" value="" style="endArrow=classic;html=1;rounded=0;exitX=0.875;exitY=0.5;exitDx=0;exitDy=0;exitPerimeter=0;entryX=0;entryY=0.5;entryDx=0;entryDy=0;" edge="1" parent="1" source="DZg0SzJ-2mYi3TYw6h-q-10" target="DZg0SzJ-2mYi3TYw6h-q-1">
          <mxGeometry width="50" height="50" relative="1" as="geometry">
            <mxPoint x="10" y="660" as="sourcePoint" />
            <mxPoint x="60" y="610" as="targetPoint" />
          </mxGeometry>
        </mxCell>
        <mxCell id="DZg0SzJ-2mYi3TYw6h-q-12" value="1. 外部数据到达网卡" style="text;html=1;strokeColor=none;fillColor=none;align=center;verticalAlign=middle;whiteSpace=wrap;rounded=0;" vertex="1" parent="1">
          <mxGeometry x="-150" y="550" width="150" height="30" as="geometry" />
        </mxCell>
        <mxCell id="DZg0SzJ-2mYi3TYw6h-q-13" value="" style="endArrow=classic;html=1;rounded=0;exitX=1;exitY=0.5;exitDx=0;exitDy=0;entryX=0.513;entryY=1.003;entryDx=0;entryDy=0;entryPerimeter=0;" edge="1" parent="1" source="DZg0SzJ-2mYi3TYw6h-q-1" target="DZg0SzJ-2mYi3TYw6h-q-4">
          <mxGeometry width="50" height="50" relative="1" as="geometry">
            <mxPoint x="280" y="640" as="sourcePoint" />
            <mxPoint x="330" y="590" as="targetPoint" />
            <Array as="points">
              <mxPoint x="590" y="580" />
            </Array>
          </mxGeometry>
        </mxCell>
        <mxCell id="DZg0SzJ-2mYi3TYw6h-q-14" value="2. 网卡把数据帧DMA到内存" style="text;html=1;strokeColor=none;fillColor=none;align=center;verticalAlign=middle;whiteSpace=wrap;rounded=0;" vertex="1" parent="1">
          <mxGeometry x="130" y="580" width="150" height="30" as="geometry" />
        </mxCell>
        <mxCell id="DZg0SzJ-2mYi3TYw6h-q-15" value="" style="endArrow=classic;html=1;rounded=0;exitX=0.25;exitY=0;exitDx=0;exitDy=0;entryX=0.25;entryY=1;entryDx=0;entryDy=0;" edge="1" parent="1" source="DZg0SzJ-2mYi3TYw6h-q-1" target="DZg0SzJ-2mYi3TYw6h-q-3">
          <mxGeometry width="50" height="50" relative="1" as="geometry">
            <mxPoint x="30" y="520" as="sourcePoint" />
            <mxPoint x="80" y="470" as="targetPoint" />
          </mxGeometry>
        </mxCell>
        <mxCell id="DZg0SzJ-2mYi3TYw6h-q-16" value="3. 发出RQ硬中断" style="text;html=1;strokeColor=none;fillColor=none;align=center;verticalAlign=middle;whiteSpace=wrap;rounded=0;" vertex="1" parent="1">
          <mxGeometry x="-90" y="440" width="110" height="30" as="geometry" />
        </mxCell>
        <mxCell id="DZg0SzJ-2mYi3TYw6h-q-17" value="RingBuffer满，数据帧直接丢弃" style="text;html=1;strokeColor=none;fillColor=none;align=center;verticalAlign=middle;whiteSpace=wrap;rounded=0;" vertex="1" parent="1">
          <mxGeometry x="600" y="590" width="96" height="30" as="geometry" />
        </mxCell>
        <mxCell id="DZg0SzJ-2mYi3TYw6h-q-20" value="" style="endArrow=classic;html=1;rounded=0;exitX=1;exitY=0.5;exitDx=0;exitDy=0;entryX=0.625;entryY=0.2;entryDx=0;entryDy=0;entryPerimeter=0;" edge="1" parent="1" source="DZg0SzJ-2mYi3TYw6h-q-1" target="DZg0SzJ-2mYi3TYw6h-q-21">
          <mxGeometry width="50" height="50" relative="1" as="geometry">
            <mxPoint x="400" y="630" as="sourcePoint" />
            <mxPoint x="450" y="580" as="targetPoint" />
            <Array as="points">
              <mxPoint x="590" y="580" />
            </Array>
          </mxGeometry>
        </mxCell>
        <mxCell id="DZg0SzJ-2mYi3TYw6h-q-21" value="" style="ellipse;shape=cloud;whiteSpace=wrap;html=1;" vertex="1" parent="1">
          <mxGeometry x="567" y="640" width="34" height="20" as="geometry" />
        </mxCell>
        <mxCell id="DZg0SzJ-2mYi3TYw6h-q-23" value="&lt;span style=&quot;color: rgb(18, 18, 18); font-family: -apple-system, BlinkMacSystemFont, &amp;quot;Helvetica Neue&amp;quot;, &amp;quot;PingFang SC&amp;quot;, &amp;quot;Microsoft YaHei&amp;quot;, &amp;quot;Source Han Sans SC&amp;quot;, &amp;quot;Noto Sans CJK SC&amp;quot;, &amp;quot;WenQuanYi Micro Hei&amp;quot;, sans-serif; text-align: start; background-color: rgb(255, 255, 255);&quot;&gt;&lt;font style=&quot;font-size: 12px;&quot;&gt;ksoftirqd&lt;br&gt;内核进程，处理软中断&lt;br&gt;&lt;/font&gt;&lt;/span&gt;" style="rounded=1;whiteSpace=wrap;html=1;" vertex="1" parent="1">
          <mxGeometry x="200" y="310" width="130" height="50" as="geometry" />
        </mxCell>
        <mxCell id="DZg0SzJ-2mYi3TYw6h-q-24" value="&lt;span style=&quot;color: rgb(18, 18, 18); font-family: -apple-system, BlinkMacSystemFont, &amp;quot;Helvetica Neue&amp;quot;, &amp;quot;PingFang SC&amp;quot;, &amp;quot;Microsoft YaHei&amp;quot;, &amp;quot;Source Han Sans SC&amp;quot;, &amp;quot;Noto Sans CJK SC&amp;quot;, &amp;quot;WenQuanYi Micro Hei&amp;quot;, sans-serif; text-align: start; background-color: rgb(255, 255, 255);&quot;&gt;&lt;font style=&quot;font-size: 12px;&quot;&gt;驱动注册的poll函数&lt;br&gt;&lt;/font&gt;&lt;/span&gt;" style="rounded=1;whiteSpace=wrap;html=1;" vertex="1" parent="1">
          <mxGeometry x="370" y="389" width="130" height="30" as="geometry" />
        </mxCell>
        <mxCell id="DZg0SzJ-2mYi3TYw6h-q-25" value="&lt;span style=&quot;color: rgb(18, 18, 18); font-family: -apple-system, BlinkMacSystemFont, &amp;quot;Helvetica Neue&amp;quot;, &amp;quot;PingFang SC&amp;quot;, &amp;quot;Microsoft YaHei&amp;quot;, &amp;quot;Source Han Sans SC&amp;quot;, &amp;quot;Noto Sans CJK SC&amp;quot;, &amp;quot;WenQuanYi Micro Hei&amp;quot;, sans-serif; text-align: start; background-color: rgb(255, 255, 255);&quot;&gt;&lt;font style=&quot;font-size: 12px;&quot;&gt;网卡注册的中断处理函数&lt;br&gt;&lt;/font&gt;&lt;/span&gt;" style="rounded=1;whiteSpace=wrap;html=1;" vertex="1" parent="1">
          <mxGeometry x="150" y="490" width="140" height="30" as="geometry" />
        </mxCell>
        <mxCell id="DZg0SzJ-2mYi3TYw6h-q-26" value="" style="endArrow=classic;html=1;rounded=0;fontSize=12;exitX=0.75;exitY=1;exitDx=0;exitDy=0;entryX=0;entryY=0.5;entryDx=0;entryDy=0;" edge="1" parent="1" source="DZg0SzJ-2mYi3TYw6h-q-3" target="DZg0SzJ-2mYi3TYw6h-q-25">
          <mxGeometry width="50" height="50" relative="1" as="geometry">
            <mxPoint x="90" y="470" as="sourcePoint" />
            <mxPoint x="140" y="420" as="targetPoint" />
            <Array as="points">
              <mxPoint x="60" y="505" />
            </Array>
          </mxGeometry>
        </mxCell>
        <mxCell id="DZg0SzJ-2mYi3TYw6h-q-27" value="4. CPU响应硬中断&lt;br&gt;调用处理中断函数" style="text;html=1;strokeColor=none;fillColor=none;align=center;verticalAlign=middle;whiteSpace=wrap;rounded=0;" vertex="1" parent="1">
          <mxGeometry x="20" y="510" width="110" height="30" as="geometry" />
        </mxCell>
        <mxCell id="DZg0SzJ-2mYi3TYw6h-q-28" value="on / off" style="ellipse;whiteSpace=wrap;html=1;aspect=fixed;fontSize=12;" vertex="1" parent="1">
          <mxGeometry x="245" y="410" width="40" height="40" as="geometry" />
        </mxCell>
        <mxCell id="DZg0SzJ-2mYi3TYw6h-q-29" value="" style="endArrow=classic;html=1;rounded=0;fontSize=12;entryX=0.5;entryY=1;entryDx=0;entryDy=0;" edge="1" parent="1" target="DZg0SzJ-2mYi3TYw6h-q-28">
          <mxGeometry width="50" height="50" relative="1" as="geometry">
            <mxPoint x="265" y="490" as="sourcePoint" />
            <mxPoint x="240" y="640" as="targetPoint" />
          </mxGeometry>
        </mxCell>
        <mxCell id="DZg0SzJ-2mYi3TYw6h-q-30" value="设置软中断标识" style="text;html=1;strokeColor=none;fillColor=none;align=center;verticalAlign=middle;whiteSpace=wrap;rounded=0;fontSize=12;" vertex="1" parent="1">
          <mxGeometry x="270" y="455" width="60" height="30" as="geometry" />
        </mxCell>
        <mxCell id="DZg0SzJ-2mYi3TYw6h-q-31" value="" style="endArrow=classic;html=1;rounded=0;fontSize=12;exitX=0.5;exitY=0;exitDx=0;exitDy=0;entryX=0.5;entryY=1;entryDx=0;entryDy=0;" edge="1" parent="1" source="DZg0SzJ-2mYi3TYw6h-q-28" target="DZg0SzJ-2mYi3TYw6h-q-23">
          <mxGeometry width="50" height="50" relative="1" as="geometry">
            <mxPoint x="-10" y="320" as="sourcePoint" />
            <mxPoint x="40" y="270" as="targetPoint" />
          </mxGeometry>
        </mxCell>
        <mxCell id="DZg0SzJ-2mYi3TYw6h-q-32" value="napi_struct" style="rounded=0;whiteSpace=wrap;html=1;fontSize=12;" vertex="1" parent="1">
          <mxGeometry x="155" y="190" width="80" height="20" as="geometry" />
        </mxCell>
        <mxCell id="DZg0SzJ-2mYi3TYw6h-q-33" value="napi_struct" style="rounded=0;whiteSpace=wrap;html=1;fontSize=12;" vertex="1" parent="1">
          <mxGeometry x="235" y="190" width="80" height="20" as="geometry" />
        </mxCell>
        <mxCell id="DZg0SzJ-2mYi3TYw6h-q-34" value="每个CPU的 poll_list" style="text;html=1;strokeColor=none;fillColor=none;align=center;verticalAlign=middle;whiteSpace=wrap;rounded=0;fontSize=12;" vertex="1" parent="1">
          <mxGeometry x="15" y="180" width="115" height="20" as="geometry" />
        </mxCell>
        <mxCell id="DZg0SzJ-2mYi3TYw6h-q-35" value="napi_struct" style="rounded=0;whiteSpace=wrap;html=1;fontSize=12;" vertex="1" parent="1">
          <mxGeometry x="315" y="190" width="80" height="20" as="geometry" />
        </mxCell>
        <mxCell id="DZg0SzJ-2mYi3TYw6h-q-36" value="net_rx_action" style="rounded=0;whiteSpace=wrap;html=1;fontSize=12;" vertex="1" parent="1">
          <mxGeometry x="225" y="240" width="80" height="40" as="geometry" />
        </mxCell>
        <mxCell id="DZg0SzJ-2mYi3TYw6h-q-37" value="" style="endArrow=classic;html=1;rounded=0;fontSize=12;exitX=0.5;exitY=0;exitDx=0;exitDy=0;entryX=0.5;entryY=1;entryDx=0;entryDy=0;" edge="1" parent="1" source="DZg0SzJ-2mYi3TYw6h-q-23" target="DZg0SzJ-2mYi3TYw6h-q-36">
          <mxGeometry width="50" height="50" relative="1" as="geometry">
            <mxPoint x="365" y="430" as="sourcePoint" />
            <mxPoint x="415" y="380" as="targetPoint" />
          </mxGeometry>
        </mxCell>
        <mxCell id="DZg0SzJ-2mYi3TYw6h-q-38" value="napi_struct" style="rounded=0;whiteSpace=wrap;html=1;fontSize=12;" vertex="1" parent="1">
          <mxGeometry x="395" y="190" width="80" height="20" as="geometry" />
        </mxCell>
        <mxCell id="DZg0SzJ-2mYi3TYw6h-q-39" value="" style="endArrow=classic;html=1;rounded=0;fontSize=12;exitX=0.5;exitY=0;exitDx=0;exitDy=0;entryX=0;entryY=0.5;entryDx=0;entryDy=0;dashed=1;" edge="1" parent="1" source="DZg0SzJ-2mYi3TYw6h-q-3" target="DZg0SzJ-2mYi3TYw6h-q-32">
          <mxGeometry width="50" height="50" relative="1" as="geometry">
            <mxPoint x="30" y="300" as="sourcePoint" />
            <mxPoint x="80" y="250" as="targetPoint" />
            <Array as="points">
              <mxPoint x="40" y="200" />
            </Array>
          </mxGeometry>
        </mxCell>
        <mxCell id="DZg0SzJ-2mYi3TYw6h-q-40" value="" style="endArrow=classic;html=1;rounded=0;fontSize=12;exitX=1;exitY=0.5;exitDx=0;exitDy=0;entryX=0.25;entryY=1;entryDx=0;entryDy=0;" edge="1" parent="1" source="DZg0SzJ-2mYi3TYw6h-q-36" target="DZg0SzJ-2mYi3TYw6h-q-38">
          <mxGeometry width="50" height="50" relative="1" as="geometry">
            <mxPoint x="420" y="300" as="sourcePoint" />
            <mxPoint x="470" y="250" as="targetPoint" />
          </mxGeometry>
        </mxCell>
        <mxCell id="DZg0SzJ-2mYi3TYw6h-q-41" value="" style="endArrow=classic;html=1;rounded=0;fontSize=12;exitX=0.5;exitY=1;exitDx=0;exitDy=0;entryX=0.5;entryY=0;entryDx=0;entryDy=0;" edge="1" parent="1" source="DZg0SzJ-2mYi3TYw6h-q-38" target="DZg0SzJ-2mYi3TYw6h-q-24">
          <mxGeometry width="50" height="50" relative="1" as="geometry">
            <mxPoint x="315" y="270" as="sourcePoint" />
            <mxPoint x="425" y="220" as="targetPoint" />
          </mxGeometry>
        </mxCell>
        <mxCell id="DZg0SzJ-2mYi3TYw6h-q-42" value="skb_buff" style="rounded=0;whiteSpace=wrap;html=1;fontSize=12;" vertex="1" parent="1">
          <mxGeometry x="553" y="320" width="80" height="30" as="geometry" />
        </mxCell>
        <mxCell id="DZg0SzJ-2mYi3TYw6h-q-43" value="" style="endArrow=classic;html=1;rounded=0;fontSize=12;exitX=1;exitY=0.5;exitDx=0;exitDy=0;entryX=0.161;entryY=0.161;entryDx=0;entryDy=0;entryPerimeter=0;" edge="1" parent="1" source="DZg0SzJ-2mYi3TYw6h-q-24" target="DZg0SzJ-2mYi3TYw6h-q-4">
          <mxGeometry width="50" height="50" relative="1" as="geometry">
            <mxPoint x="518.9999999999995" y="424" as="sourcePoint" />
            <mxPoint x="739" y="380" as="targetPoint" />
          </mxGeometry>
        </mxCell>
        <mxCell id="DZg0SzJ-2mYi3TYw6h-q-44" value="" style="endArrow=classic;html=1;rounded=0;fontSize=12;entryX=0.5;entryY=1;entryDx=0;entryDy=0;" edge="1" parent="1" source="DZg0SzJ-2mYi3TYw6h-q-4" target="DZg0SzJ-2mYi3TYw6h-q-42">
          <mxGeometry width="50" height="50" relative="1" as="geometry">
            <mxPoint x="709" y="400" as="sourcePoint" />
            <mxPoint x="613" y="370" as="targetPoint" />
          </mxGeometry>
        </mxCell>
        <mxCell id="DZg0SzJ-2mYi3TYw6h-q-50" value="IP头" style="rounded=0;whiteSpace=wrap;html=1;fontSize=12;" vertex="1" parent="1">
          <mxGeometry x="560" y="240" width="40" height="30" as="geometry" />
        </mxCell>
        <mxCell id="DZg0SzJ-2mYi3TYw6h-q-51" value="UDP头" style="rounded=0;whiteSpace=wrap;html=1;fontSize=12;" vertex="1" parent="1">
          <mxGeometry x="600" y="240" width="40" height="30" as="geometry" />
        </mxCell>
        <mxCell id="DZg0SzJ-2mYi3TYw6h-q-52" value="应用数据" style="rounded=0;whiteSpace=wrap;html=1;fontSize=12;" vertex="1" parent="1">
          <mxGeometry x="640" y="240" width="60" height="30" as="geometry" />
        </mxCell>
        <mxCell id="DZg0SzJ-2mYi3TYw6h-q-59" value="UDP头" style="rounded=0;whiteSpace=wrap;html=1;fontSize=12;" vertex="1" parent="1">
          <mxGeometry x="601" y="180" width="40" height="30" as="geometry" />
        </mxCell>
        <mxCell id="DZg0SzJ-2mYi3TYw6h-q-60" value="应用数据" style="rounded=0;whiteSpace=wrap;html=1;fontSize=12;" vertex="1" parent="1">
          <mxGeometry x="641" y="180" width="60" height="30" as="geometry" />
        </mxCell>
        <mxCell id="DZg0SzJ-2mYi3TYw6h-q-61" value="应用数据" style="rounded=0;whiteSpace=wrap;html=1;fontSize=12;" vertex="1" parent="1">
          <mxGeometry x="640" y="112" width="60" height="30" as="geometry" />
        </mxCell>
        <mxCell id="DZg0SzJ-2mYi3TYw6h-q-62" value="" style="endArrow=classic;html=1;rounded=0;fontSize=12;exitX=1;exitY=0;exitDx=0;exitDy=0;entryX=1;entryY=1;entryDx=0;entryDy=0;" edge="1" parent="1" source="DZg0SzJ-2mYi3TYw6h-q-42" target="DZg0SzJ-2mYi3TYw6h-q-52">
          <mxGeometry width="50" height="50" relative="1" as="geometry">
            <mxPoint x="670" y="360" as="sourcePoint" />
            <mxPoint x="720" y="310" as="targetPoint" />
          </mxGeometry>
        </mxCell>
        <mxCell id="DZg0SzJ-2mYi3TYw6h-q-63" value="" style="endArrow=classic;html=1;rounded=0;fontSize=12;exitX=0;exitY=0;exitDx=0;exitDy=0;entryX=0;entryY=1;entryDx=0;entryDy=0;" edge="1" parent="1" source="DZg0SzJ-2mYi3TYw6h-q-42" target="DZg0SzJ-2mYi3TYw6h-q-50">
          <mxGeometry width="50" height="50" relative="1" as="geometry">
            <mxPoint x="510" y="290" as="sourcePoint" />
            <mxPoint x="560" y="240" as="targetPoint" />
          </mxGeometry>
        </mxCell>
        <mxCell id="DZg0SzJ-2mYi3TYw6h-q-64" value="协议栈处理" style="text;html=1;strokeColor=none;fillColor=none;align=center;verticalAlign=middle;whiteSpace=wrap;rounded=0;fontSize=12;" vertex="1" parent="1">
          <mxGeometry x="730" y="200" width="60" height="30" as="geometry" />
        </mxCell>
        <mxCell id="DZg0SzJ-2mYi3TYw6h-q-65" value="" style="endArrow=classic;html=1;rounded=0;fontSize=12;exitX=0.5;exitY=0;exitDx=0;exitDy=0;entryX=0.5;entryY=1;entryDx=0;entryDy=0;" edge="1" parent="1" source="DZg0SzJ-2mYi3TYw6h-q-52" target="DZg0SzJ-2mYi3TYw6h-q-60">
          <mxGeometry width="50" height="50" relative="1" as="geometry">
            <mxPoint x="910" y="210" as="sourcePoint" />
            <mxPoint x="960" y="160" as="targetPoint" />
          </mxGeometry>
        </mxCell>
        <mxCell id="DZg0SzJ-2mYi3TYw6h-q-66" value="" style="endArrow=classic;html=1;rounded=0;fontSize=12;exitX=0.5;exitY=0;exitDx=0;exitDy=0;entryX=0.5;entryY=1;entryDx=0;entryDy=0;" edge="1" parent="1" source="DZg0SzJ-2mYi3TYw6h-q-60" target="DZg0SzJ-2mYi3TYw6h-q-61">
          <mxGeometry width="50" height="50" relative="1" as="geometry">
            <mxPoint x="679.9999999999995" y="250" as="sourcePoint" />
            <mxPoint x="681" y="220" as="targetPoint" />
          </mxGeometry>
        </mxCell>
        <mxCell id="DZg0SzJ-2mYi3TYw6h-q-67" value="" style="rounded=0;whiteSpace=wrap;html=1;fontSize=12;" vertex="1" parent="1">
          <mxGeometry x="280" y="78" width="210" height="70" as="geometry" />
        </mxCell>
        <mxCell id="DZg0SzJ-2mYi3TYw6h-q-68" value="&lt;font style=&quot;font-size: 14px;&quot;&gt;socket&lt;/font&gt;" style="rounded=1;whiteSpace=wrap;html=1;fontSize=12;" vertex="1" parent="1">
          <mxGeometry x="150" y="98" width="85" height="30" as="geometry" />
        </mxCell>
        <mxCell id="DZg0SzJ-2mYi3TYw6h-q-69" value="接收队列" style="text;html=1;strokeColor=none;fillColor=none;align=center;verticalAlign=middle;whiteSpace=wrap;rounded=0;fontSize=14;" vertex="1" parent="1">
          <mxGeometry x="340" y="82" width="60" height="30" as="geometry" />
        </mxCell>
        <mxCell id="DZg0SzJ-2mYi3TYw6h-q-70" value="应用数据" style="rounded=0;whiteSpace=wrap;html=1;fontSize=12;" vertex="1" parent="1">
          <mxGeometry x="310" y="112" width="60" height="30" as="geometry" />
        </mxCell>
        <mxCell id="DZg0SzJ-2mYi3TYw6h-q-71" value="应用数据" style="rounded=0;whiteSpace=wrap;html=1;fontSize=12;" vertex="1" parent="1">
          <mxGeometry x="370" y="112" width="60" height="30" as="geometry" />
        </mxCell>
        <mxCell id="DZg0SzJ-2mYi3TYw6h-q-72" value="" style="endArrow=classic;html=1;rounded=0;fontSize=14;exitX=1;exitY=0.5;exitDx=0;exitDy=0;entryX=0;entryY=0.5;entryDx=0;entryDy=0;" edge="1" parent="1" source="DZg0SzJ-2mYi3TYw6h-q-68" target="DZg0SzJ-2mYi3TYw6h-q-67">
          <mxGeometry width="50" height="50" relative="1" as="geometry">
            <mxPoint x="240" y="40" as="sourcePoint" />
            <mxPoint x="290" y="-10" as="targetPoint" />
          </mxGeometry>
        </mxCell>
        <mxCell id="DZg0SzJ-2mYi3TYw6h-q-73" value="" style="endArrow=classic;html=1;rounded=0;fontSize=14;exitX=0;exitY=0.5;exitDx=0;exitDy=0;entryX=1;entryY=0.5;entryDx=0;entryDy=0;" edge="1" parent="1" source="DZg0SzJ-2mYi3TYw6h-q-61" target="DZg0SzJ-2mYi3TYw6h-q-71">
          <mxGeometry width="50" height="50" relative="1" as="geometry">
            <mxPoint x="770" y="30" as="sourcePoint" />
            <mxPoint x="820" y="-20" as="targetPoint" />
          </mxGeometry>
        </mxCell>
        <mxCell id="DZg0SzJ-2mYi3TYw6h-q-75" value="" style="rounded=0;whiteSpace=wrap;html=1;fontSize=14;" vertex="1" parent="1">
          <mxGeometry x="130" y="-70" width="480" height="60" as="geometry" />
        </mxCell>
        <mxCell id="DZg0SzJ-2mYi3TYw6h-q-76" value="应用数据" style="rounded=0;whiteSpace=wrap;html=1;fontSize=12;" vertex="1" parent="1">
          <mxGeometry x="430" y="-55" width="60" height="30" as="geometry" />
        </mxCell>
        <mxCell id="DZg0SzJ-2mYi3TYw6h-q-77" value="应用程序" style="rounded=0;whiteSpace=wrap;html=1;fontSize=14;" vertex="1" parent="1">
          <mxGeometry x="160" y="-60" width="120" height="40" as="geometry" />
        </mxCell>
        <mxCell id="DZg0SzJ-2mYi3TYw6h-q-78" value="5. 轮询poll_list" style="text;html=1;strokeColor=none;fillColor=none;align=center;verticalAlign=middle;whiteSpace=wrap;rounded=0;" vertex="1" parent="1">
          <mxGeometry x="320" y="250" width="110" height="30" as="geometry" />
        </mxCell>
        <mxCell id="DZg0SzJ-2mYi3TYw6h-q-79" value="6. 将数据从 ringBuffer &lt;br&gt;copy 到 skb_buff" style="text;html=1;strokeColor=none;fillColor=none;align=center;verticalAlign=middle;whiteSpace=wrap;rounded=0;" vertex="1" parent="1">
          <mxGeometry x="600" y="359" width="140" height="30" as="geometry" />
        </mxCell>
      </root>
    </mxGraphModel>
  </diagram>
</mxfile>
